<svg xmlns="http://www.w3.org/2000/svg" viewBox="0 0 360 200" role="img" aria-labelledby="t">
  <title id="t">Пассажирский автобус</title>
  <defs>
    <linearGradient id="gp" x1="0" y1="0" x2="1" y2="1">
      <stop offset="0%" stop-color="#ffffff"/>
      <stop offset="50%" stop-color="#fde8e8"/>
      <stop offset="100%" stop-color="#e31e24"/>
    </linearGradient>
  </defs>
  <rect width="360" height="200" fill="url(#gp)"/>
  <rect x="24" y="150" width="312" height="12" rx="3" fill="#c62828" opacity="0.2"/>
  <rect x="48" y="88" width="264" height="72" rx="10" fill="#fff5f5" stroke="#e31e24" stroke-width="2"/>
  <rect x="68" y="102" width="36" height="28" rx="3" fill="#e3f2fd" opacity="0.9"/>
  <rect x="114" y="102" width="36" height="28" rx="3" fill="#e3f2fd" opacity="0.9"/>
  <rect x="160" y="102" width="36" height="28" rx="3" fill="#e3f2fd" opacity="0.9"/>
  <rect x="206" y="102" width="36" height="28" rx="3" fill="#e3f2fd" opacity="0.9"/>
  <rect x="252" y="102" width="36" height="28" rx="3" fill="#e3f2fd" opacity="0.9"/>
  <rect x="298" y="102" width="36" height="28" rx="3" fill="#e3f2fd" opacity="0.9"/>
  <rect x="278" y="96" width="44" height="40" rx="4" fill="#1a1a1a" opacity="0.15"/>
  <circle cx="88" cy="160" r="18" fill="#333"/>
  <circle cx="88" cy="160" r="8" fill="#bbb"/>
  <circle cx="288" cy="160" r="18" fill="#333"/>
  <circle cx="288" cy="160" r="8" fill="#bbb"/>
</svg>
